<svg xmlns="http://www.w3.org/2000/svg" viewBox="0 0 333334 247552" shape-rendering="geometricPrecision" text-rendering="geometricPrecision" image-rendering="optimizeQuality" fill-rule="evenodd" clip-rule="evenodd"><path d="M22565 0h288203c12411 0 22565 10155 22565 22565v202422c0 12410-10156 22565-22565 22565H22565C10155 247552 0 237398 0 224987V22565C0 10154 10154 0 22565 0zm95992 175626H88963l-4250 13931H58050l31818-84533h28591l31680 84533h-27351l-4231-13931zm-5530-18300l-9228-30381-9268 30381h18496zm47421-52302h43448c9465 0 16548 2243 21271 6749 4703 4506 7064 10921 7064 19244 0 8540-2578 15230-7713 20031-5136 4821-12987 7222-23534 7222h-14325v31287h-26210v-84533zm26210 36128h6435c5076 0 8638-885 10685-2637 2046-1751 3070-3994 3070-6730 0-2656-885-4900-2676-6749-1771-1850-5116-2774-10035-2774h-7477v18890zm62415-36128h26210v84533h-26210v-84533zm70938-41843H14339v164005c0 1730 672 3267 1826 4421 1153 1153 2691 1826 4420 1826h293084c1730 0 3267-672 4420-1826 1154-1154 1826-2691 1826-4421V63181h96zm-30720-37815c6155 0 11145 4990 11145 11145s-4990 11145-11145 11145-11145-4990-11145-11145 4990-11145 11145-11145zm-75539 0c6155 0 11145 4990 11145 11145s-4990 11145-11145 11145-11145-4990-11145-11145 4990-11145 11145-11145zm37770 0c6155 0 11145 4990 11145 11145s-4990 11145-11145 11145-11145-4990-11145-11145 4990-11145 11145-11145z"/></svg>