<svg height="512" viewBox="0 0 512 512" width="512" xmlns="http://www.w3.org/2000/svg"><g id="Flat"><path d="m328 408h-32v20.002l32 11.998z" fill="#fec093"/><path d="m244.448 368a10.931 10.931 0 0 0 -7.3 2.63 19.7 19.7 0 0 1 -13.148 5.37c-13.255 0-24-14.327-24-32s10.745-32 24-32a19.706 19.706 0 0 1 13.15 5.37 10.929 10.929 0 0 0 7.3 2.63 11.552 11.552 0 0 0 11.55-11.552v-52.448h-52.448a11.552 11.552 0 0 1 -11.552-11.552 10.929 10.929 0 0 1 2.63-7.3 19.706 19.706 0 0 0 5.37-13.148c0-13.255-14.327-24-32-24s-32 10.745-32 24a19.7 19.7 0 0 0 5.37 13.15 10.931 10.931 0 0 1 2.63 7.3 11.552 11.552 0 0 1 -11.552 11.55h-52.448v136a32 32 0 0 0 32 32h144v-44.448a11.552 11.552 0 0 0 -11.552-11.552z" fill="#ffb531"/><path d="m312 168c0 17.67-10.75 32-24 32a19.709 19.709 0 0 1 -13.15-5.37 10.942 10.942 0 0 0 -7.3-2.63 11.549 11.549 0 0 0 -11.55 11.55v52.45h-52.45a11.549 11.549 0 0 1 -11.55-11.55 10.942 10.942 0 0 1 2.63-7.3 19.709 19.709 0 0 0 5.37-13.15c0-13.25-14.33-24-32-24s-32 10.75-32 24a19.709 19.709 0 0 0 5.37 13.15 10.942 10.942 0 0 1 2.63 7.3 11.549 11.549 0 0 1 -11.55 11.55h-52.45v-136a31.981 31.981 0 0 1 32-32h144v44.45a11.549 11.549 0 0 0 11.55 11.55 10.942 10.942 0 0 0 7.3-2.63 19.709 19.709 0 0 1 13.15-5.37c13.25 0 24 14.33 24 32z" fill="#348fd9"/><path d="m400 88h-144v44.448a11.552 11.552 0 0 0 11.552 11.552 10.931 10.931 0 0 0 7.3-2.63 19.7 19.7 0 0 1 13.148-5.37c13.255 0 24 14.327 24 32s-10.745 32-24 32a19.706 19.706 0 0 1 -13.15-5.37 10.929 10.929 0 0 0 -7.3-2.63 11.552 11.552 0 0 0 -11.55 11.552v52.448h52.448a11.552 11.552 0 0 1 11.552 11.552 10.931 10.931 0 0 1 -2.63 7.3 19.7 19.7 0 0 0 -5.37 13.148c0 13.255 14.327 24 32 24s32-10.745 32-24a19.7 19.7 0 0 0 -5.37-13.15 10.932 10.932 0 0 1 -2.63-7.3 11.552 11.552 0 0 1 11.552-11.55h52.448v-136a32 32 0 0 0 -32-32z" fill="#4db7e5"/><path d="m422.231 278.284a11.773 11.773 0 0 0 -15.28 6.659 11.2 11.2 0 0 0 -.233 7.925 20.185 20.185 0 0 1 .181 14.518c-4.955 12.606-22.566 17.458-39.337 10.837s-26.349-22.206-21.4-34.812a20.116 20.116 0 0 1 10.012-10.494 11.17 11.17 0 0 0 5.223-5.956 11.815 11.815 0 0 0 -6.644-15.313l-49.764-19.648-19.6 49.879a11.775 11.775 0 0 1 -15.28 6.659 11.156 11.156 0 0 1 -5.942-5.236 20.119 20.119 0 0 0 -10.471-10.033c-12.578-4.965-28.13 4.635-34.736 21.442s-1.765 34.458 10.813 39.424a20.057 20.057 0 0 0 14.486-.181 11.119 11.119 0 0 1 7.908.233 11.814 11.814 0 0 1 6.644 15.313l-16.614 42.271 136.646 53.944a32.613 32.613 0 0 0 42.327-18.445l50.83-129.338z" fill="#d75246"/><g fill="#b7e7eb"><path d="m223.351 444h25.298v16.001h-25.298z" transform="matrix(.949 -.316 .316 .949 -130.817 97.818)"/><path d="m241.578 476h28.844v16h-28.844z" transform="matrix(.555 -.832 .832 .555 -288.716 428.53)"/><path d="m455.351 236h25.298v16h-25.298z" transform="matrix(.316 -.949 .949 .316 88.505 610.802)"/><path d="m472 264h24v16h-24z"/></g><path d="m216 32v56h-32v-8.4a15.757 15.757 0 0 0 -1.95-7.6 16.043 16.043 0 0 0 -16.74-8.05c-7.86 1.27-13.31 8.59-13.31 16.5v54.84c0 7.9-5.45 15.22-13.31 16.49a15.966 15.966 0 0 1 -18.69-15.65 16 16 0 0 1 -32 0 16 16 0 0 1 -32 0 15.64 15.64 0 0 1 -2.57 8.63 16 16 0 0 1 -14.53 7.2c-8.58-.57-14.9-8.31-14.9-16.83v-103.13z" fill="#fec9a3"/><rect fill="#feb784" height="56.135" rx="8" width="16" x="48" y="80"/><rect fill="#feb784" height="56.135" rx="8" width="16" x="80" y="80"/><rect fill="#feb784" height="56.135" rx="8" width="16" x="112" y="80"/><path d="m216 72v16h-32v-8.4a15.757 15.757 0 0 0 -1.95-7.6z" fill="#fec093"/><path d="m488 216h-56v-32h8.4a15.757 15.757 0 0 0 7.6-1.95 16.043 16.043 0 0 0 8.05-16.74c-1.27-7.86-8.59-13.31-16.5-13.31h-54.84c-7.9 0-15.22-5.45-16.49-13.31a15.966 15.966 0 0 1 15.65-18.69 16 16 0 0 1 0-32 16 16 0 0 1 0-32 15.64 15.64 0 0 1 -8.63-2.57 16 16 0 0 1 -7.2-14.53c.57-8.58 8.31-14.9 16.83-14.9h103.13z" fill="#fec9a3"/><rect fill="#feb784" height="16" rx="8" width="56.135" x="383.865" y="48"/><rect fill="#feb784" height="16" rx="8" width="56.135" x="383.865" y="80"/><rect fill="#feb784" height="16" rx="8" width="56.135" x="383.865" y="112"/><path d="m448 216h-16v-32h8.4a15.757 15.757 0 0 0 7.6-1.95z" fill="#fec093"/><path d="m24 296h56v32h-8.4a15.757 15.757 0 0 0 -7.6 1.95 16.043 16.043 0 0 0 -8.05 16.74c1.27 7.86 8.59 13.31 16.5 13.31h54.84c7.9 0 15.22 5.45 16.49 13.31a15.966 15.966 0 0 1 -15.65 18.69 16 16 0 0 1 0 32 16 16 0 0 1 0 32 15.64 15.64 0 0 1 8.63 2.57 16 16 0 0 1 7.2 14.53c-.57 8.58-8.31 14.9-16.83 14.9h-103.13z" fill="#fec9a3"/><rect fill="#feb784" height="16" rx="8" width="56.135" x="72" y="448"/><rect fill="#feb784" height="16" rx="8" width="56.135" x="72" y="416"/><rect fill="#feb784" height="16" rx="8" width="56.135" x="72" y="384"/><path d="m64 296h16v32h-8.4a15.757 15.757 0 0 0 -7.6 1.95z" fill="#fec093"/><path d="m296 488v-60l32 12v.4a15.757 15.757 0 0 0 1.95 7.6 16.043 16.043 0 0 0 16.74 8.05c7.86-1.27 13.31-8.59 13.31-16.5v-54.84c0-7.9 5.45-15.22 13.31-16.49a15.966 15.966 0 0 1 18.69 15.65 16 16 0 0 1 32 0 16 16 0 0 1 32 0 15.64 15.64 0 0 1 2.57-8.63 16 16 0 0 1 14.53-7.2c8.58.57 14.9 8.31 14.9 16.83v103.13z" fill="#fec9a3"/><rect fill="#feb784" height="56.135" rx="8" width="16" x="448" y="383.865"/><rect fill="#feb784" height="56.135" rx="8" width="16" x="416" y="383.865"/><rect fill="#feb784" height="56.135" rx="8" width="16" x="384" y="383.865"/></g></svg>